# xmcd CD database file
#
# Track frame offsets:
#	187
#	3352
#	23292
#	43834
#	67234
#	72299
#	91629
#	116859
#	141182
#	168314
#	172524
#	192712
#	213477
#	236197
#	258382
#
# Disc length: 3748 seconds
#
# Revision: 4
# Processed by: cddbd v1.5PL3 Copyright (c) Steve Scherf et al.
# Submitted via: CDex 1.50beta9
#
DISCID=d00ea20f
DTITLE=Faith  Evans - Faith
DYEAR=1900
DGENRE=R&B
TTITLE0=Faith (Interlude)
TTITLE1=No Other Love
TTITLE2=Fallin' In Love
TTITLE3=Ain't Nobody
TTITLE4=You Are My Joy (Interlude)
TTITLE5=Love Don't Live Here Anymore
TTITLE6=Come Over
TTITLE7=Soon As I Get Home
TTITLE8=All This Love
TTITLE9=Thank You Lord (Interlude)
TTITLE10=You Used To Love Me
TTITLE11=Give It To Me
TTITLE12=You Don't Understand
TTITLE13=Don't Be Afraid
TTITLE14=Reasons
EXTD=
EXTT0=
EXTT1=
EXTT2=
EXTT3=
EXTT4=
EXTT5=
EXTT6=
EXTT7=
EXTT8=
EXTT9=
EXTT10=
EXTT11=
EXTT12=
EXTT13=
EXTT14=
PLAYORDER=
